PathFileType	4	(X/Y/Z)	C:/Users/opensim2020/Desktop/walking_exp_matlab/subject03_walking06_straight_04.trc	
DataRate	CameraRate	NumFrames	NumMarkers	Units	OrigDataRate	OrigDataStartFrame	OrigNumFrames	
100.00	100.00	4	44	mm	100.00	2902	278	
Frame#	Time	LFHD			RFHD			LBHD			RBHD			C7			T10			CLAV			STRN			RBAK			LSHO			LUPA			LELB			LFRM			LWRA			LWRB			LFIN			RSHO			RUPA			RELB			RFRM			RWRA			RWRB			RFIN			LASI			RASI			LPSI			RPSI			LTHI			LKNE			LTIB			LANK			LHEE			LTOE			RTHI			RKNE			RTIB			RANK			RHEE			RTOE			*39			*40			*41			*42			*43			
		X1	Y1	Z1	X2	Y2	Z2	X3	Y3	Z3	X4	Y4	Z4	X5	Y5	Z5	X6	Y6	Z6	X7	Y7	Z7	X8	Y8	Z8	X9	Y9	Z9	X10	Y10	Z10	X11	Y11	Z11	X12	Y12	Z12	X13	Y13	Z13	X14	Y14	Z14	X15	Y15	Z15	X16	Y16	Z16	X17	Y17	Z17	X18	Y18	Z18	X19	Y19	Z19	X20	Y20	Z20	X21	Y21	Z21	X22	Y22	Z22	X23	Y23	Z23	X24	Y24	Z24	X25	Y25	Z25	X26	Y26	Z26	X27	Y27	Z27	X28	Y28	Z28	X29	Y29	Z29	X30	Y30	Z30	X31	Y31	Z31	X32	Y32	Z32	X33	Y33	Z33	X34	Y34	Z34	X35	Y35	Z35	X36	Y36	Z36	X37	Y37	Z37	X38	Y38	Z38	X39	Y39	Z39	X40	Y40	Z40	X41	Y41	Z41	X42	Y42	Z42	X43	Y43	Z43	X44	Y44	Z44	

174	1.730	-962.56238	-305.72510	1602.49438	-1095.27332	-299.74765	1610.18408	-962.60760	-175.70332	1563.78564	-1093.48279	-174.80893	1570.86670	-1022.10657	-136.27155	1405.21570	-1018.83350	-104.13374	1089.77356	-1025.80688	-256.65945	1327.25281	-1024.01770	-301.36801	1163.78674	-1116.31531	-79.35145	1227.87891	-866.80518	-214.99635	1362.70447	-799.32965	-182.97548	1163.75769	-788.86993	-169.17361	1040.88416	-788.50586	-171.51863	910.11298	-817.53094	-169.93224	790.57935	-767.49097	-145.28288	800.06946	-777.24957	-143.01530	715.20020	-1184.10266	-208.02660	1350.45044	-1266.47400	-249.03421	1139.08264	-1284.58325	-299.41098	1040.04407	-1281.89343	-377.69635	928.79205	-1242.76099	-450.44885	864.77936	-1284.15784	-425.94824	841.34204	-1273.80005	-483.22083	796.48669	-918.72156	-282.84109	927.93115	-1155.65283	-256.65521	925.17566	-947.38812	-115.91163	946.43915	-1097.06250	-101.68607	956.98883	-875.98590	-282.92661	630.43469	-921.14508	-332.79871	460.77667	-916.91010	-334.33755	269.50146	-954.03705	-373.48499	63.59942	-990.26349	-335.19199	29.90563	-979.15118	-525.16089	34.84446	-1186.86133	-156.41855	637.11157	-1154.60242	-134.55721	457.72592	-1147.53516	-17.37907	300.00269	-1091.75232	89.61614	112.19437	-1036.83276	137.76999	99.84248	-1079.03711	-31.52509	29.18641	-1010.28461	-223.88324	1666.93896												 
175	1.740	-961.90424	-315.20450	1604.15759	-1094.60498	-309.04144	1611.76746	-961.87610	-185.31219	1565.02930	-1092.63013	-184.22763	1572.05347	-1021.32922	-146.15826	1406.59473	-1018.71942	-114.16669	1091.11206	-1025.15686	-266.50098	1328.76721	-1023.56549	-311.49915	1165.37268	-1115.22424	-89.03222	1229.06726	-866.08435	-225.41267	1363.90112	-798.84552	-194.25999	1164.73877	-788.50159	-180.29964	1041.92969	-788.15271	-182.04530	911.08881	-817.29639	-178.78401	791.50012	-766.86285	-155.40660	801.18524	-776.76971	-152.24791	716.29498	-1183.45203	-217.55334	1351.78723	-1265.05420	-257.43353	1139.73962	-1282.83386	-307.40558	1040.30334	-1280.15454	-384.91333	928.57831	-1241.12854	-457.36624	864.19116	-1282.26025	-432.45755	840.65466	-1272.16492	-489.56113	795.70227	-918.30237	-293.35971	930.59418	-1155.01489	-267.34262	925.65918	-947.55939	-126.10256	948.85938	-1097.25598	-112.40347	957.77374	-876.20764	-292.17709	633.05536	-921.07550	-340.64957	462.50046	-916.44086	-338.99521	270.32074	-954.48096	-374.31720	63.83249	-990.22156	-335.23611	30.01859	-980.55701	-525.63531	34.42548	-1186.81445	-168.32671	637.10229	-1155.60059	-147.30460	457.75476	-1148.08276	-26.08096	302.81140	-1092.35986	85.25146	117.69508	-1037.13550	133.18950	107.35075	-1079.11182	-32.19305	29.17406	-1009.47284	-233.10455	1668.32092												 
176	1.750	-961.24536	-324.65540	1605.82397	-1093.91687	-318.35565	1613.42725	-961.02509	-194.90762	1566.42920	-1091.86035	-193.67270	1573.46680	-1020.39288	-155.86491	1408.17578	-1018.70740	-124.12098	1092.56055	-1024.55383	-276.27847	1330.45422	-1023.14557	-321.50897	1167.14734	-1114.41553	-98.76104	1230.55920	-865.47375	-235.74005	1365.48230	-798.28040	-206.18700	1166.07300	-788.17419	-191.85991	1043.30237	-787.86139	-193.04056	912.53253	-817.31726	-188.65514	792.66449	-766.21149	-166.24373	802.70349	-776.29785	-162.16472	717.76355	-1182.75208	-227.07370	1353.58105	-1263.47864	-265.75793	1140.81555	-1280.95825	-315.13477	1040.94873	-1278.28650	-391.62738	928.41919	-1239.50281	-463.64496	863.46698	-1280.47339	-438.31482	840.13196	-1270.65039	-495.16281	794.85449	-917.78064	-303.77017	933.44873	-1153.46069	-278.45148	926.74054	-947.68652	-136.49458	951.20123	-1097.45581	-123.16308	958.83734	-876.19653	-301.27603	635.46936	-920.95435	-348.20566	464.37701	-916.34106	-343.07791	271.23322	-954.77423	-374.98563	63.78835	-990.18231	-335.35516	30.15434	-980.38544	-526.09894	34.02417	-1186.90186	-180.73019	637.23969	-1156.96533	-161.25049	457.77875	-1149.02539	-36.13854	305.65662	-1092.99390	79.86903	123.77544	-1037.26453	127.48692	115.75195	-1079.16858	-32.95758	29.20299															 
177	1.760	-960.69586	-334.38077	1607.57922	-1093.29053	-327.74847	1615.05151	-960.24530	-204.40631	1567.94617	-1091.05530	-203.05214	1574.97949	-1019.63275	-165.52827	1409.76306	-1018.70398	-133.97105	1094.16797	-1023.98419	-286.03976	1332.21411	-1022.73328	-331.59671	1168.93225	-1113.82263	-108.64227	1232.19727	-864.95746	-245.99156	1367.34082	-797.89374	-217.68292	1167.83936	-788.08435	-203.64981	1044.94592	-787.61176	-204.64294	914.27008	-816.61462	-199.64832	794.55951	-765.53107	-177.59181	804.52936	-775.77887	-172.74965	719.47290	-1182.00183	-236.46365	1355.63599	-1261.82263	-274.16608	1142.16956	-1278.87390	-322.70746	1041.87622	-1276.47095	-397.85315	928.53577	-1237.82666	-469.54428	862.97180	-1278.70789	-443.59586	839.62866	-1269.04468	-499.91754	793.74805	-917.00586	-314.18906	936.25201	-1152.78772	-289.04791	927.87000	-947.87543	-146.73727	953.60468	-1097.49255	-133.87863	960.14209	-875.75739	-310.08160	637.31744	-920.66785	-354.84390	465.70941	-916.18640	-346.40109	271.77481	-954.83142	-375.11783	63.92806	-990.14600	-335.39716	30.25066	-979.82843	-526.47156	33.68303	-1187.17798	-193.63322	637.45490	-1158.83081	-176.46802	457.75781	-1150.24573	-47.29798	308.75598	-1093.78503	73.56149	130.48305	-1037.42822	120.38258	124.87285	-1079.15027	-33.88244	29.25780	-1005.74603	-251.17235	1675.86133												 
